<?xml version="1.0" encoding="UTF-8" standalone="no"?><!DOCTYPE svg PUBLIC "-//W3C//DTD SVG 1.1//EN" "http://www.w3.org/Graphics/SVG/1.1/DTD/svg11.dtd"><svg width="100%" height="100%" viewBox="0 0 1000 1000" version="1.1" xmlns="http://www.w3.org/2000/svg" xmlns:xlink="http://www.w3.org/1999/xlink" xml:space="preserve" xmlns:serif="http://www.serif.com/" style="fill-rule:evenodd;clip-rule:evenodd;stroke-linejoin:round;stroke-miterlimit:2;"><g><text x="541.117px" y="688.854px" style="font-family:'Lato-Regular', 'Lato', sans-serif;font-size:99.699px;fill:#fffffe;">.zic</text><circle cx="500" cy="500" r="377.083" style="fill:#f7f7f7;"/></g><g><g><path d="M781.25,356.25l0,287.5c0,77.613 -63.012,140.625 -140.625,140.625l-281.25,0c-77.613,0 -140.625,-63.012 -140.625,-140.625l-0,-287.5c-0,-77.613 63.012,-140.625 140.625,-140.625l281.25,-0c77.613,-0 140.625,63.012 140.625,140.625Z" style="fill:#b0d8ff;"/><g><g><text x="543.861px" y="701.446px" style="font-family:'Lato-Regular', 'Lato', sans-serif;font-size:106.346px;fill:#4d3b6b;">.zic</text></g><g><path d="M309.648,426.158l-0,-125.691l0.151,-0c104.921,-0 189.982,85.054 189.982,189.981c-0,104.922 -85.061,189.982 -189.982,189.982l-0.151,0l-0,-125.691l0.151,0c35.503,0 64.291,-28.781 64.291,-64.291c-0,-35.503 -28.788,-64.29 -64.291,-64.29l-0.151,-0Z" style="fill:#340d75;"/></g><g><path d="M309.648,554.739l-0,-49.121l0.151,0c8.376,0 15.17,-6.794 15.17,-15.17c-0,-8.375 -6.794,-15.163 -15.17,-15.163l-0.151,-0l-0,-49.127l0.151,-0c35.503,-0 64.291,28.787 64.291,64.29c-0,35.51 -28.788,64.291 -64.291,64.291l-0.151,0Z" style="fill:#5d84b4;"/></g><g><path d="M559.314,356.445l0,216.194c0,34.643 -18.436,56.812 -32.418,69.321c-10.473,9.364 -22.273,14.77 -27.885,17.261c0.946,4.97 -1.891,10.097 -6.739,12.151l-26.455,10.897c-5.582,2.364 -12.085,-0.248 -14.448,-5.836l-5.182,-12.133c-2.37,-5.582 0.188,-12.025 5.776,-14.382l26.236,-10.909c4.455,-1.879 8.776,-0.588 11.812,2.848c10.249,-4.46 45.061,-23.297 45.061,-69.218l-0,-215.212c-6.061,-2.927 -18.218,-11.521 -20.643,-23.042c-3.43,-16.425 7.891,-32.534 24.316,-35.976c16.424,-3.443 34,7.079 37.448,23.503c3.091,14.776 -4.758,29.267 -16.879,34.533Z" style="fill:#ed14a9;"/></g></g></g></g></svg>