<?xml version="1.0" encoding="utf-8"?>
<svg width="100%" height="100%" viewBox="0 0 64 64" version="1.1" style="fill-rule:evenodd;clip-rule:evenodd;stroke-linejoin:round;stroke-miterlimit:2;" xmlns="http://www.w3.org/2000/svg">
  <path d="M 45.668 22.149 C 48.619 22.149 50.88 24.437 50.878 27.251 L 50.878 50.26 C 50.878 53.074 48.549 55.361 45.666 55.361 L 17.385 55.361 C 14.575 55.361 12.24 53.077 12.24 50.26 L 12.24 27.251 C 12.24 24.435 14.574 22.149 17.387 22.149 L 45.668 22.149 Z M 14.901 50.36 C 14.901 51.713 16.035 52.8 17.385 52.8 L 45.666 52.8 C 47.062 52.8 48.218 51.722 48.218 50.36 L 48.218 27.35 C 48.218 25.988 47.096 24.91 45.668 24.91 L 17.387 24.91 C 16.035 24.91 14.901 25.997 14.901 27.35 L 14.901 50.36 Z" style="fill:rgb(241,241,241);"/>
  <path d="M 21.614 29.1 C 23.44 29.1 24.919 30.545 24.919 32.326 C 24.919 34.109 23.501 35.553 21.614 35.553 C 19.727 35.553 18.31 34.109 18.31 32.326 C 18.31 30.545 19.851 29.1 21.614 29.1 Z" style="fill:rgb(241,241,241);"/>
  <path d="M 44.677 50.044 C 44.484 50.394 44.113 50.608 43.707 50.608 L 19.611 50.608 C 19.197 50.608 18.818 50.381 18.63 50.02 C 18.442 49.66 18.478 49.227 18.722 48.9 L 23.541 42.447 C 23.749 42.167 24.079 42.004 24.429 42.004 C 24.781 42.004 25.112 42.17 25.32 42.447 L 27.554 45.439 L 33.978 36.089 C 34.185 35.734 34.529 35.553 34.894 35.553 C 35.26 35.553 35.607 35.733 35.81 36.031 L 44.622 48.936 C 44.849 49.264 44.869 49.688 44.677 50.044 Z" style="fill:rgb(241,241,241);"/>
  <path d="M 62.055 15.86 C 63.352 18.081 64 20.509 64 23.139 C 64 25.77 63.352 28.195 62.055 30.416 C 60.761 32.638 59.002 34.397 56.78 35.694 C 54.558 36.991 52.131 37.64 49.5 37.64 C 46.87 37.64 44.445 36.991 42.223 35.694 C 40.001 34.397 38.242 32.638 36.945 30.416 C 35.648 28.195 35 25.77 35 23.139 C 35 20.509 35.648 18.081 36.945 15.86 C 38.242 13.638 40.001 11.881 42.223 10.584 C 44.445 9.287 46.87 8.639 49.5 8.639 C 52.131 8.639 54.558 9.287 56.78 10.584 C 59.002 11.881 60.761 13.638 62.055 15.86 Z" style="fill:rgb(52,13,117);"/>
  <path d="M 57.958 24.346 L 57.958 21.93 C 57.958 21.603 57.84 21.321 57.6 21.081 C 57.361 20.841 57.079 20.723 56.752 20.723 L 51.916 20.723 L 51.916 15.888 C 51.916 15.561 51.798 15.279 51.558 15.039 C 51.319 14.799 51.037 14.681 50.71 14.681 L 48.293 14.681 C 47.966 14.681 47.682 14.799 47.442 15.039 C 47.205 15.279 47.084 15.561 47.084 15.888 L 47.084 20.723 L 42.251 20.723 C 41.924 20.723 41.639 20.841 41.403 21.081 C 41.163 21.321 41.042 21.603 41.042 21.93 L 41.042 24.346 C 41.042 24.676 41.163 24.958 41.403 25.198 C 41.639 25.437 41.924 25.556 42.251 25.556 L 47.084 25.556 L 47.084 30.388 C 47.084 30.715 47.205 31 47.442 31.24 C 47.682 31.476 47.966 31.598 48.293 31.598 L 50.71 31.598 C 51.037 31.598 51.319 31.476 51.558 31.24 C 51.798 31 51.916 30.715 51.916 30.388 L 51.916 25.556 L 56.752 25.556 C 57.079 25.556 57.361 25.437 57.6 25.198 C 57.84 24.958 57.958 24.676 57.958 24.346 Z" style="fill:rgb(241,241,241);"/>
</svg>