<svg viewBox="0 0 64 64" style="fill-rule:evenodd;clip-rule:evenodd;stroke-linejoin:round;stroke-miterlimit:2;" xmlns="http://www.w3.org/2000/svg">
  <path d="M 31.999 8.001 C 18.742 8.001 7.999 18.744 7.999 32.001 C 7.999 45.255 18.742 56.001 31.999 56.001 C 45.256 56.001 55.999 45.255 55.999 32.001 C 55.999 18.744 45.256 8.001 31.999 8.001 Z M 29.749 22.251 C 29.749 21.012 30.763 20.001 31.999 20.001 C 33.235 20.001 34.249 21.006 34.249 22.251 L 34.249 34.251 C 34.249 35.493 33.241 36.501 31.999 36.501 C 30.757 36.501 29.749 35.499 29.749 34.251 L 29.749 22.251 Z M 31.999 45.501 C 30.37 45.501 29.05 44.181 29.05 42.552 C 29.05 40.926 30.37 39.606 31.999 39.606 C 33.628 39.606 34.948 40.926 34.948 42.552 C 34.942 44.178 33.631 45.501 31.999 45.501 Z" style="fill: rgb(173, 69, 23);"/>
  <path d="M 31.999 8.001 C 18.742 8.001 7.999 18.744 7.999 32.001 C 7.999 45.255 18.742 56.001 31.999 56.001 C 45.256 56.001 55.999 45.255 55.999 32.001 C 55.999 18.744 45.256 8.001 31.999 8.001 Z" style="fill:none;"/>
  <path d="M 29.749 22.251 C 29.749 21.012 30.763 20.001 31.999 20.001 C 33.235 20.001 34.249 21.006 34.249 22.251 L 34.249 34.251 C 34.249 35.493 33.241 36.501 31.999 36.501 C 30.757 36.501 29.749 35.499 29.749 34.251 L 29.749 22.251 Z" style="fill: rgb(255, 255, 255);"/>
  <path d="M 31.999 45.501 C 30.37 45.501 29.05 44.181 29.05 42.552 C 29.05 40.926 30.37 39.606 31.999 39.606 C 33.628 39.606 34.948 40.926 34.948 42.552 C 34.942 44.178 33.631 45.501 31.999 45.501 Z" style="fill: rgb(255, 255, 255);"/>
</svg>