<svg viewBox="0 0 64 64" style="fill-rule:evenodd;clip-rule:evenodd;stroke-linejoin:round;stroke-miterlimit:2;" xmlns="http://www.w3.org/2000/svg">
  <path d="M 38.868 22.844 C 41.819 22.844 44.08 25.132 44.078 27.946 L 44.078 50.955 C 44.078 53.769 41.749 56.056 38.866 56.056 L 10.585 56.056 C 7.775 56.056 5.44 53.772 5.44 50.955 L 5.44 27.946 C 5.44 25.13 7.774 22.844 10.587 22.844 L 38.868 22.844 Z M 8.101 51.055 C 8.101 52.408 9.235 53.495 10.585 53.495 L 38.866 53.495 C 40.262 53.495 41.418 52.417 41.418 51.055 L 41.418 28.045 C 41.418 26.683 40.296 25.605 38.868 25.605 L 10.587 25.605 C 9.235 25.605 8.101 26.692 8.101 28.045 L 8.101 51.055 Z" style="fill:rgb(164,164,164);"/>
  <path d="M 14.814 29.795 C 16.64 29.795 18.119 31.24 18.119 33.021 C 18.119 34.804 16.701 36.248 14.814 36.248 C 12.927 36.248 11.51 34.804 11.51 33.021 C 11.51 31.24 13.051 29.795 14.814 29.795 Z" style="fill:rgb(164,164,164);"/>
  <path d="M 37.877 50.739 C 37.684 51.089 37.313 51.303 36.907 51.303 L 12.811 51.303 C 12.397 51.303 12.018 51.076 11.83 50.715 C 11.642 50.355 11.678 49.922 11.922 49.595 L 16.741 43.142 C 16.949 42.862 17.279 42.699 17.629 42.699 C 17.981 42.699 18.312 42.865 18.52 43.142 L 20.754 46.134 L 27.178 36.784 C 27.385 36.429 27.729 36.248 28.094 36.248 C 28.46 36.248 28.807 36.428 29.01 36.726 L 37.822 49.631 C 38.049 49.959 38.069 50.383 37.877 50.739 Z" style="fill: rgb(164, 164, 164);"/>
  <circle cx="42.562" cy="23.946" r="14.5" style="fill:white;"/>
  <path d="M 56.428 7.945 C 55.25 7.945 54.294 8.901 54.294 10.078 L 54.294 15.019 C 51.634 11.316 47.321 9.012 42.561 9.012 C 36.261 9.012 30.734 13.035 28.801 19.026 C 28.439 20.148 29.053 21.353 30.175 21.711 C 31.301 22.078 32.5 21.458 32.861 20.34 C 34.222 16.114 38.122 13.278 42.561 13.278 C 45.93 13.278 48.978 14.917 50.856 17.545 L 47.894 17.545 C 46.717 17.545 45.761 18.501 45.761 19.678 C 45.761 20.86 46.717 21.812 47.894 21.812 L 56.428 21.812 C 57.605 21.812 58.561 20.86 58.561 19.678 L 58.561 10.078 C 58.561 8.901 57.608 7.945 56.428 7.945 Z M 54.949 26.187 C 53.821 25.825 52.622 26.441 52.261 27.559 C 50.902 31.779 47.003 34.612 42.561 34.612 C 39.195 34.612 36.146 32.975 34.269 30.345 L 37.228 30.345 C 38.405 30.345 39.361 29.394 39.361 28.212 C 39.361 27.034 38.405 26.078 37.228 26.078 L 28.695 26.078 C 27.517 26.078 26.561 27.034 26.561 28.212 L 26.561 37.812 C 26.561 38.994 27.517 39.945 28.695 39.945 C 29.872 39.945 30.828 38.994 30.828 37.812 L 30.828 32.875 C 33.488 36.579 37.802 38.878 42.501 38.878 C 48.799 38.878 54.329 34.857 56.261 28.867 C 56.688 27.747 56.069 26.486 54.949 26.187 Z" style="fill: rgb(52, 13, 117); fill-rule: nonzero;"/>
</svg>