<svg width="100%" height="100%"  style="fill:currentColor" viewBox="0 0 64 64" version="1.1"  xmlns="http://www.w3.org/2000/svg">
  <path d="M 26.242 11.001 L 37.756 11.001 C 39.697 11.001 41.41 12.24 42.022 14.076 L 42.997 17.001 L 49.999 17.001 C 53.308 17.001 55.999 19.692 55.999 23.001 L 55.999 47.001 C 55.999 50.31 53.308 53.001 49.999 53.001 L 13.999 53.001 C 10.684 53.001 7.999 50.31 7.999 47.001 L 7.999 23.001 C 7.999 19.692 10.684 17.001 13.999 17.001 L 21.001 17.001 L 21.976 14.076 C 22.588 12.24 24.301 11.001 26.242 11.001 Z M 31.999 44.001 C 36.97 44.001 40.999 39.969 40.999 35.001 C 40.999 29.946 36.97 26.001 31.999 26.001 C 26.947 26.001 22.999 29.946 22.999 35.001 C 22.999 39.969 26.947 44.001 31.999 44.001 Z"/>
</svg>