<?xml version="1.0" encoding="utf-8"?>
<svg viewBox="0 0 150 150" style="fill-rule:evenodd;clip-rule:evenodd;stroke-linejoin:round;stroke-miterlimit:2;" xmlns="http://www.w3.org/2000/svg">
  <path d="M 135.941 75 C 135.941 108.634 108.634 135.941 75 135.941 C 41.366 135.941 14.059 108.634 14.059 75 C 14.059 41.366 41.366 14.059 75 14.059 C 108.634 14.059 135.941 41.366 135.941 75 Z M 98.438 65.614 C 98.438 52.664 87.949 42.175 74.999 42.175 C 62.05 42.175 51.561 52.664 51.561 65.614 C 51.561 79.912 65.185 98.311 71.659 106.221 C 73.417 108.36 76.582 108.36 78.31 106.221 C 84.785 98.311 98.409 79.912 98.409 65.614 Z M 65.624 65.614 C 65.624 60.471 69.856 56.239 74.999 56.239 C 80.143 56.239 84.375 60.471 84.375 65.614 C 84.375 70.757 80.143 74.989 74.999 74.989 C 69.856 74.989 65.624 70.757 65.624 65.614 Z" style="fill:#f6f6f6;"/>
</svg>