<svg viewBox="0 0 64 64" style="fill-rule:evenodd;clip-rule:evenodd;stroke-linejoin:round;stroke-miterlimit:2;" xmlns="http://www.w3.org/2000/svg">
  <path d="M 18.84 41.84 L 11.597 41.84 C 8.782 41.84 6.442 39.55 6.442 36.728 L 6.442 13.672 C 6.442 10.85 8.78 8.56 11.597 8.56 L 39.936 8.56 C 42.895 8.56 45.16 10.852 45.16 13.672 L 45.16 22.06 L 52.337 22.06 C 55.296 22.06 57.56 24.352 57.558 27.171 L 57.558 50.228 C 57.558 53.05 55.225 55.34 52.337 55.34 L 23.998 55.34 C 21.181 55.34 18.84 53.05 18.84 50.228 L 18.84 41.84 Z M 52.337 24.827 L 23.998 24.827 C 22.645 24.827 21.506 25.915 21.506 27.273 L 21.506 50.329 C 21.506 51.685 22.645 52.773 23.998 52.773 L 52.337 52.773 C 53.735 52.773 54.892 51.694 54.892 50.329 L 54.892 27.271 C 54.892 25.908 53.768 24.827 52.337 24.827 Z M 42.491 22.06 L 42.491 13.672 C 42.494 12.307 41.367 11.228 39.936 11.228 L 11.597 11.228 C 10.244 11.228 9.108 12.316 9.108 13.672 L 9.108 36.728 C 9.108 38.084 10.244 39.172 11.597 39.172 L 18.84 39.172 L 18.84 27.171 C 18.84 24.352 21.181 22.06 23.998 22.06 L 42.491 22.06 Z" style="fill:rgb(247,247,247);"/>
  <path d="M 28.234 28.971 C 26.468 28.971 24.923 30.419 24.923 32.204 C 24.923 33.99 26.345 35.438 28.234 35.438 C 30.126 35.438 31.547 33.99 31.547 32.204 C 31.547 30.419 30.064 28.971 28.234 28.971 Z" style="fill:rgb(247,247,247);"/>
  <path d="M 51.344 49.959 C 51.538 49.602 51.517 49.178 51.29 48.848 L 42.46 35.918 C 42.257 35.618 41.907 35.438 41.541 35.438 C 41.175 35.438 40.831 35.621 40.625 35.976 L 34.187 45.344 L 31.949 42.346 C 31.741 42.069 31.408 41.903 31.056 41.903 C 30.704 41.903 30.374 42.065 30.166 42.346 L 25.336 48.811 C 25.093 49.141 25.055 49.574 25.244 49.934 C 25.433 50.296 25.813 50.524 26.229 50.524 L 50.374 50.524 C 50.78 50.524 51.153 50.31 51.344 49.959 Z" style="fill:rgb(247,247,247);"/>
</svg>