<svg viewBox="0 0 64 64" style="fill-rule:evenodd;clip-rule:evenodd;stroke-linejoin:round;stroke-miterlimit:2;" xmlns="http://www.w3.org/2000/svg">
  <path d="M 23.675 10.159 C 24.182 9.145 25.22 8.5 26.357 8.5 L 37.643 8.5 C 38.777 8.5 39.818 9.145 40.325 10.159 L 41 11.5 L 50 11.5 C 51.659 11.5 53 12.847 53 14.5 C 53 16.159 51.659 17.5 50 17.5 L 14 17.5 C 12.344 17.5 11 16.159 11 14.5 C 11 12.847 12.344 11.5 14 11.5 L 23 11.5 L 23.675 10.159 Z" style="fill:rgb(247,247,247);"/>
  <path d="M 13.916 19.5 L 50 19.5 L 50 49.5 C 50 52.812 47.309 55.5 44 55.5 L 19.916 55.5 C 16.685 55.5 13.916 52.812 13.916 49.5 L 13.916 19.5 Z M 30.416 27 L 30.416 48 C 30.416 48.828 31.175 49.5 31.916 49.5 C 32.825 49.5 33.5 48.828 33.5 48 L 33.5 27 C 33.5 26.175 32.825 25.5 31.916 25.5 C 31.175 25.5 30.416 26.175 30.416 27 Z M 21.416 27 L 21.416 48 C 21.416 48.828 22.175 49.5 22.916 49.5 C 23.825 49.5 24.416 48.828 24.416 48 L 24.416 27 C 24.416 26.175 23.825 25.5 22.916 25.5 C 22.175 25.5 21.416 26.175 21.416 27 Z M 39.5 27 L 39.5 48 C 39.5 48.828 40.175 49.5 41 49.5 C 41.825 49.5 42.5 48.828 42.5 48 L 42.5 27 C 42.5 26.175 41.825 25.5 41 25.5 C 40.175 25.5 39.5 26.175 39.5 27 Z" style="fill:rgb(247,247,247);"/>
</svg>