<svg viewBox="0 0 64 64" style="fill-rule:evenodd;clip-rule:evenodd;stroke-linejoin:round;stroke-miterlimit:2;" xmlns="http://www.w3.org/2000/svg">
  <path d="M 23.675 9.659 C 24.182 8.645 25.22 8 26.357 8 L 37.643 8 C 38.777 8 39.818 8.645 40.325 9.659 L 41 11 L 50 11 C 51.659 11 53 12.347 53 14 C 53 15.659 51.659 17 50 17 L 14 17 C 12.344 17 11 15.659 11 14 C 11 12.347 12.344 11 14 11 L 23 11 L 23.675 9.659 Z" style="fill: rgb(173, 69, 23);"/>
  <path d="M 13.916 20 L 50 20 L 50 50 C 50 53.312 47.309 56 44 56 L 19.916 56 C 16.685 56 13.916 53.312 13.916 50 L 13.916 20 Z" style="fill: rgb(173, 69, 23);"/>
  <path d="M 21.416 27.5 L 21.416 48.5 C 21.416 49.328 22.175 50 22.916 50 C 23.825 50 24.416 49.328 24.416 48.5 L 24.416 27.5 C 24.416 26.675 23.825 26 22.916 26 C 22.175 26 21.416 26.675 21.416 27.5 Z" style="fill: rgb(247, 247, 247);"/>
  <path d="M 39.5 27.5 L 39.5 48.5 C 39.5 49.328 40.175 50 41 50 C 41.825 50 42.5 49.328 42.5 48.5 L 42.5 27.5 C 42.5 26.675 41.825 26 41 26 C 40.175 26 39.5 26.675 39.5 27.5 Z" style="fill: rgb(247, 247, 247);"/>
  <path d="M 30.416 27.5 L 30.416 48.5 C 30.416 49.328 31.175 50 31.916 50 C 32.825 50 33.5 49.328 33.5 48.5 L 33.5 27.5 C 33.5 26.675 32.825 26 31.916 26 C 31.175 26 30.416 26.675 30.416 27.5 Z" style="fill: rgb(247, 247, 247);"/>
</svg>