<svg viewBox="0 0 64 64" style="fill:currentColor" xmlns="http://www.w3.org/2000/svg">
  <path style="fill:currentColor" d="M 50.667 48 L 13.336 48 C 10.389 48 8 45.613 8 42.667 L 8 21.333 C 8 18.389 10.389 16 13.333 16 L 50.667 16 C 53.613 16 56 18.389 56 21.333 L 56 42.667 C 56 45.611 53.611 48 50.667 48 Z M 50.667 33.667 L 50.667 30.333 C 50.667 29.784 50.219 29.333 49.667 29.333 L 46.333 29.333 C 45.784 29.333 45.333 29.784 45.333 30.333 L 45.333 33.667 C 45.333 34.219 45.784 34.667 46.333 34.667 L 49.667 34.667 C 50.219 34.667 50.667 34.219 50.667 33.667 Z M 34.667 33.667 L 34.667 30.333 C 34.667 29.784 34.219 29.333 33.667 29.333 L 30.333 29.333 C 29.784 29.333 29.333 29.784 29.333 30.333 L 29.333 33.667 C 29.333 34.219 29.784 34.667 30.333 34.667 L 33.667 34.667 C 34.219 34.667 34.667 34.219 34.667 33.667 Z M 18.667 41.667 L 18.667 38.333 C 18.667 37.784 18.219 37.333 17.667 37.333 L 14.333 37.333 C 13.784 37.333 13.333 37.784 13.333 38.333 L 13.333 41.667 C 13.333 42.219 13.784 42.667 14.333 42.667 L 17.667 42.667 C 18.219 42.667 18.667 42.219 18.667 41.667 Z M 34.667 25.667 L 34.667 22.333 C 34.667 21.784 34.219 21.333 33.667 21.333 L 30.333 21.333 C 29.784 21.333 29.333 21.784 29.333 22.333 L 29.333 25.667 C 29.333 26.219 29.784 26.667 30.333 26.667 L 33.667 26.667 C 34.219 26.667 34.667 26.219 34.667 25.667 Z M 42.667 25.667 L 42.667 22.333 C 42.667 21.784 42.219 21.333 41.667 21.333 L 38.333 21.333 C 37.784 21.333 37.333 21.784 37.333 22.333 L 37.333 25.667 C 37.333 26.219 37.784 26.667 38.333 26.667 L 41.667 26.667 C 42.219 26.667 42.667 26.219 42.667 25.667 Z M 26.667 25.667 L 26.667 22.333 C 26.667 21.784 26.219 21.333 25.667 21.333 L 22.333 21.333 C 21.784 21.333 21.333 21.784 21.333 22.333 L 21.333 25.667 C 21.333 26.219 21.784 26.667 22.333 26.667 L 25.667 26.667 C 26.219 26.667 26.667 26.219 26.667 25.667 Z M 18.667 25.667 L 18.667 22.333 C 18.667 21.784 18.219 21.333 17.667 21.333 L 14.333 21.333 C 13.784 21.333 13.333 21.784 13.333 22.333 L 13.333 25.667 C 13.333 26.219 13.784 26.667 14.333 26.667 L 17.667 26.667 C 18.219 26.667 18.667 26.219 18.667 25.667 Z M 42.667 33.667 L 42.667 30.333 C 42.667 29.784 42.219 29.333 41.667 29.333 L 38.333 29.333 C 37.784 29.333 37.333 29.784 37.333 30.333 L 37.333 33.667 C 37.333 34.219 37.784 34.667 38.333 34.667 L 41.667 34.667 C 42.219 34.667 42.667 34.219 42.667 33.667 Z M 50.667 25.667 L 50.667 22.333 C 50.667 21.784 50.219 21.333 49.667 21.333 L 46.333 21.333 C 45.784 21.333 45.333 21.784 45.333 22.333 L 45.333 25.667 C 45.333 26.219 45.784 26.667 46.333 26.667 L 49.667 26.667 C 50.219 26.667 50.667 26.219 50.667 25.667 Z M 50.667 41.667 L 50.667 38.333 C 50.667 37.784 50.219 37.333 49.667 37.333 L 46.333 37.333 C 45.784 37.333 45.333 37.784 45.333 38.333 L 45.333 41.667 C 45.333 42.219 45.784 42.667 46.333 42.667 L 49.667 42.667 C 50.219 42.667 50.667 42.219 50.667 41.667 Z M 42.667 41.667 L 42.667 38.333 C 42.667 37.784 42.219 37.333 41.667 37.333 L 22.333 37.333 C 21.784 37.333 21.333 37.784 21.333 38.333 L 21.333 41.667 C 21.333 42.219 21.784 42.667 22.333 42.667 L 41.667 42.667 C 42.219 42.667 42.667 42.219 42.667 41.667 Z M 26.667 33.667 L 26.667 30.333 C 26.667 29.784 26.219 29.333 25.667 29.333 L 22.333 29.333 C 21.784 29.333 21.333 29.784 21.333 30.333 L 21.333 33.667 C 21.333 34.219 21.784 34.667 22.333 34.667 L 25.667 34.667 C 26.219 34.667 26.667 34.219 26.667 33.667 Z M 18.667 33.667 L 18.667 30.333 C 18.667 29.784 18.219 29.333 17.667 29.333 L 14.333 29.333 C 13.784 29.333 13.333 29.784 13.333 30.333 L 13.333 33.667 C 13.333 34.219 13.784 34.667 14.333 34.667 L 17.667 34.667 C 18.219 34.667 18.667 34.219 18.667 33.667 Z"/>
</svg>