<svg viewBox="0 0 100 100" style="fill:rgb(52, 13, 117);" xmlns="http://www.w3.org/2000/svg">
  <path d="M 76.695 64.218 L 62.253 50 L 76.695 35.781 C 77.862 34.466 77.862 33.224 76.695 32.057 L 67.948 23.309 C 66.781 22.143 65.539 22.143 64.223 23.309 L 50.005 37.742 L 35.777 23.309 C 34.47 22.143 33.229 22.143 32.062 23.309 L 23.305 32.057 C 22.139 33.224 22.139 34.466 23.305 35.781 L 37.748 50 L 23.305 64.218 C 22.139 65.535 22.139 66.776 23.305 67.943 L 32.062 76.69 C 33.229 77.857 34.47 77.857 35.777 76.69 L 50.005 62.247 L 64.223 76.69 C 65.539 77.857 66.781 77.857 67.948 76.69 L 76.695 67.943 C 77.862 66.776 77.862 65.535 76.695 64.218 Z" style="stroke-width: 1.18;"/>
</svg>