<svg width="100%" height="100%" viewBox="0 0 64 64" version="1.1" style="fill-rule:evenodd;clip-rule:evenodd;stroke-linejoin:round;stroke-miterlimit:2;" xmlns="http://www.w3.org/2000/svg">
  <path d="M 49.027 59.406 C 48.928 59.406 48.83 59.389 48.738 59.355 L 48.738 36.638 C 48.83 36.604 48.928 36.587 49.027 36.587 C 50.446 36.587 51.759 38.711 52.629 39.561 L 52.434 34.411 C 52.434 28.973 50.854 24.593 48.321 21.27 C 47.392 21.341 46.479 20.993 45.832 20.323 L 45.543 20.025 C 41.876 16.397 36.816 14.761 31.819 14.855 C 26.823 14.948 21.844 16.779 18.415 20.059 L 18.134 20.331 C 17.416 21.058 16.383 21.384 15.377 21.202 C 12.828 24.533 11.235 28.939 11.235 34.433 L 11.039 40.334 C 11.995 39.183 13.733 36.655 15.288 36.587 L 15.288 59.406 C 11.97 59.338 9.586 54.108 8.775 51.538 L 7.5 51.538 L 7.5 34.433 C 7.497 28.837 9.423 23.408 12.951 19.065 C 12.608 17.963 12.903 16.757 13.716 15.938 L 14.141 15.534 C 18.7 11.175 25.183 8.754 31.717 8.626 C 38.252 8.499 44.995 10.708 49.932 15.619 L 50.318 16.015 C 51.099 16.824 51.382 17.997 51.057 19.074 C 54.578 23.414 56.5 28.836 56.5 34.424 L 56.5 51.538 L 55.561 51.538 C 54.758 54.146 52.358 59.428 49.022 59.428 L 49.027 59.406 Z M 46.669 60.834 L 42.845 60.834 C 42.035 60.834 41.368 60.169 41.366 59.36 L 41.366 36.519 C 41.368 35.708 42.035 35.042 42.845 35.04 L 46.669 35.04 L 46.669 60.834 Z M 17.331 35.04 L 21.521 35.04 C 22.33 35.045 22.995 35.709 22.999 36.519 L 22.999 59.36 C 22.995 60.168 22.329 60.832 21.521 60.834 L 17.331 60.834 L 17.331 35.04 Z" style="fill:rgb(52, 13, 117);"/>
</svg>