<svg viewBox="0 0 64 64" style="fill-rule:evenodd;clip-rule:evenodd;stroke-linejoin:round;stroke-miterlimit:2;"
  xmlns="http://www.w3.org/2000/svg" id="inviteBtn">
  <path d="M 52.463 5.855 L 46.981 5.855 C 46.116 5.855 45.414 6.557 45.414 7.422 L 45.414 16.819 C 45.414 17.685 46.116 18.385 46.981 18.385 L 52.463 18.385 C 53.328 18.385 54.029 17.685 54.029 16.819 L 54.029 7.422 C 54.029 6.557 53.327 5.855 52.463 5.855 Z" style="fill:rgb(21,21,21);" transform="matrix(0.83867, 0.54464, -0.54464, 0.83867, 14.622598, -25.124987)"/>
  <path d="M 47.163 16.844 C 46.728 16.844 46.38 16.496 46.38 16.061 C 46.38 15.627 46.728 15.278 47.163 15.278 C 47.597 15.278 47.946 15.627 47.946 16.061 C 47.946 16.496 47.598 16.844 47.163 16.844 Z" style="fill:white;" transform="matrix(0.83867, 0.54464, -0.54464, 0.83867, 16.35626, -23.095724)"/>
  <rect x="33.193" y="7.549" width="5.482" height="7.831" style="fill:rgb(247,247,247);" transform="matrix(0.83867, 0.54464, -0.54464, 0.83867, 26.256359, -17.722237)"/>
  <path d="M 49.855 8.927 C 50.081 8.927 50.264 9.11 50.264 9.336 L 50.264 10.153 C 50.264 10.379 50.081 10.561 49.855 10.561 L 49.038 10.561 C 48.813 10.561 48.63 10.379 48.63 10.153 L 48.63 9.336 C 48.63 9.11 48.813 8.927 49.038 8.927 L 49.855 8.927 Z M 49.719 9.472 L 49.174 9.472 L 49.174 10.017 L 49.719 10.017 L 49.719 9.472 Z M 49.855 11.106 C 50.081 11.106 50.264 11.289 50.264 11.515 L 50.264 12.332 C 50.264 12.557 50.081 12.74 49.855 12.74 L 49.038 12.74 C 48.813 12.74 48.63 12.557 48.63 12.332 L 48.63 11.515 C 48.63 11.289 48.813 11.106 49.038 11.106 L 49.855 11.106 Z M 49.719 11.651 L 49.174 11.651 L 49.174 12.195 L 49.719 12.195 L 49.719 11.651 Z M 50.808 9.336 C 50.808 9.11 50.991 8.927 51.217 8.927 L 52.034 8.927 C 52.26 8.927 52.443 9.11 52.443 9.336 L 52.443 10.153 C 52.443 10.379 52.26 10.561 52.034 10.561 L 51.217 10.561 C 50.991 10.561 50.808 10.379 50.808 10.153 L 50.808 9.336 Z M 51.353 10.017 L 51.898 10.017 L 51.898 9.472 L 51.353 9.472 L 51.353 10.017 Z M 51.626 12.468 L 51.898 12.468 L 51.898 12.74 L 51.626 12.74 L 51.626 12.468 Z M 52.443 12.74 L 52.17 12.74 L 52.17 12.468 L 52.443 12.468 L 52.443 12.74 Z M 52.17 11.106 L 52.443 11.106 L 52.443 12.195 L 51.626 12.195 L 51.626 11.923 L 51.353 11.923 L 51.353 12.74 L 50.808 12.74 L 50.808 11.106 L 51.626 11.106 L 51.626 11.378 L 52.17 11.378 L 52.17 11.106 Z" style="fill:rgb(21,21,21);fill-rule:nonzero;" transform="matrix(0.83867, 0.54464, -0.54464, 0.83867, 14.053429, -25.776445)"/>
  <path d="M 37.998 14 C 37.998 17.315 35.307 20 31.998 20 C 28.689 20 25.998 17.315 25.998 14 C 25.998 10.688 28.689 8 31.998 8 C 35.307 8 37.998 10.688 37.998 14 Z M 28.596 23.957 C 29.682 24.23 30.837 24.5 32.016 24.5 C 35.757 24.5 39.246 22.607 41.28 19.475 L 42.987 16.865 C 43.887 15.476 45.744 15.083 47.139 15.986 C 48.528 16.889 48.921 18.746 48.012 20.141 L 46.314 22.748 C 44.598 25.382 42.237 27.437 39.498 28.775 L 39.498 53 C 39.498 54.659 38.157 56 36.498 56 C 34.839 56 33.498 54.659 33.498 53 L 33.498 44 L 30.498 44 L 30.498 53 C 30.498 54.659 29.157 56 27.498 56 C 25.839 56 24.498 54.659 24.498 53 L 24.498 28.757 C 21.84 27.446 19.524 25.448 17.829 22.823 L 16.002 20.171 C 15.084 18.782 15.456 16.925 16.833 16.004 C 18.213 15.086 20.076 15.458 20.994 16.835 L 22.821 19.577 C 24.171 21.593 26.112 23.084 28.332 23.873 C 28.428 23.891 28.512 23.921 28.596 23.957 Z" class="dBlue" fill="currentColor" id="streamer"/>
</svg>