<svg viewBox="0 0 64 64" style="fill-rule:evenodd;clip-rule:evenodd;stroke-linejoin:round;stroke-miterlimit:2;" xmlns="http://www.w3.org/2000/svg">
  <path d="M 18.679 25.74 C 18.027 26.517 16.983 27.124 15.939 27.038 C 15.808 25.993 16.32 24.879 16.922 24.203 C 17.573 23.409 18.715 22.843 19.646 22.799 C 19.749 23.879 19.323 24.949 18.679 25.74 Z M 19.629 27.238 C 20.219 27.283 21.918 27.456 23.004 29.077 C 22.918 29.146 20.985 30.252 21.01 32.583 C 21.038 35.368 23.447 36.29 23.475 36.315 C 23.458 36.387 23.091 37.63 22.211 38.919 C 21.439 40.05 20.645 41.156 19.384 41.181 C 18.164 41.2 17.757 40.451 16.354 40.451 C 14.961 40.451 14.51 41.156 13.351 41.2 C 12.134 41.242 11.212 40 10.435 38.866 C 8.853 36.577 7.645 32.427 9.279 29.614 C 10.073 28.213 11.516 27.336 13.076 27.308 C 14.276 27.283 15.37 28.102 16.103 28.102 C 16.816 28.102 18.114 27.152 19.629 27.238 Z"/>
  <path d="M 28.686 40.437 L 28.686 28.079 L 30.68 28.079 L 30.68 40.437 L 28.686 40.437 Z M 29.684 26.085 C 28.996 26.085 28.422 25.511 28.422 24.823 C 28.422 24.125 28.996 23.563 29.684 23.563 C 30.382 23.563 30.944 24.125 30.944 24.823 C 30.944 25.511 30.382 26.085 29.684 26.085 Z M 38.591 40.437 C 35.118 40.437 32.893 37.972 32.893 34.144 C 32.893 30.304 35.118 27.85 38.591 27.85 C 42.064 27.85 44.289 30.304 44.289 34.144 C 44.289 37.972 42.064 40.437 38.591 40.437 Z M 38.591 38.66 C 40.895 38.66 42.259 36.976 42.259 34.144 C 42.259 31.3 40.895 29.627 38.591 29.627 C 36.287 29.627 34.922 31.312 34.922 34.144 C 34.922 36.976 36.299 38.66 38.591 38.66 Z M 46.18 31.416 C 46.18 29.329 48.072 27.862 50.754 27.862 C 53.265 27.862 55.168 29.363 55.248 31.393 L 53.333 31.393 C 53.207 30.235 52.198 29.513 50.685 29.513 C 49.16 29.513 48.14 30.235 48.14 31.312 C 48.14 32.15 48.805 32.71 50.227 33.067 L 52.107 33.536 C 54.606 34.167 55.499 35.037 55.499 36.838 C 55.499 38.947 53.471 40.437 50.616 40.437 C 47.957 40.437 46.03 38.993 45.837 36.85 L 47.843 36.85 C 48.048 38.11 49.069 38.787 50.754 38.787 C 52.44 38.787 53.493 38.087 53.493 36.976 C 53.493 36.104 52.978 35.645 51.568 35.278 L 49.401 34.718 C 47.235 34.156 46.18 33.067 46.18 31.416 Z"/>
</svg>