<svg width="100" height="100" viewBox="0 0 88 88" version="1.1" xmlns="http://www.w3.org/2000/svg" xmlns:xlink="http://www.w3.org/1999/xlink" xml:space="preserve" xmlns:serif="http://www.serif.com/" style="fill-rule:evenodd;clip-rule:evenodd;stroke-linejoin:round;stroke-miterlimit:2;">
    <rect x="0" y="0" width="88" height="88" style="fill:rgb(176,216,255);"/>
    <g transform="matrix(1,0,0,1,51.237,77.239)">
        <path d="M0.77,-0.963C0.77,-1.114 0.798,-1.257 0.853,-1.391C0.909,-1.525 0.984,-1.642 1.081,-1.741C1.177,-1.84 1.292,-1.919 1.426,-1.978C1.56,-2.036 1.703,-2.065 1.855,-2.065C2.007,-2.065 2.15,-2.036 2.284,-1.978C2.418,-1.919 2.535,-1.84 2.634,-1.741C2.733,-1.642 2.81,-1.525 2.866,-1.391C2.921,-1.257 2.949,-1.114 2.949,-0.963C2.949,-0.805 2.921,-0.661 2.866,-0.529C2.81,-0.398 2.733,-0.283 2.634,-0.184C2.535,-0.085 2.418,-0.007 2.284,0.048C2.15,0.104 2.007,0.131 1.855,0.131C1.703,0.131 1.56,0.104 1.426,0.048C1.292,-0.007 1.177,-0.085 1.081,-0.184C0.984,-0.283 0.909,-0.398 0.853,-0.529C0.798,-0.661 0.77,-0.805 0.77,-0.963Z" style="fill:rgb(77,59,107);fill-rule:nonzero;"/>
        <path d="M11.174,-8.199C11.174,-8.088 11.153,-7.981 11.113,-7.879C11.072,-7.777 11.019,-7.685 10.955,-7.604L6.16,-1.216L10.999,-1.216L10.999,0L4.323,0L4.323,-0.648C4.323,-0.723 4.341,-0.812 4.379,-0.914C4.417,-1.016 4.471,-1.114 4.541,-1.208L9.363,-7.639L4.594,-7.639L4.594,-8.864L11.174,-8.864L11.174,-8.199Z" style="fill:rgb(77,59,107);fill-rule:nonzero;"/>
        <path d="M14.805,-8.864L14.805,0L13.248,0L13.248,-8.864L14.805,-8.864ZM15.155,-11.646C15.155,-11.495 15.124,-11.353 15.063,-11.222C15.002,-11.091 14.92,-10.974 14.818,-10.872C14.716,-10.77 14.598,-10.69 14.464,-10.631C14.33,-10.573 14.187,-10.544 14.035,-10.544C13.883,-10.544 13.742,-10.573 13.611,-10.631C13.479,-10.69 13.363,-10.77 13.261,-10.872C13.159,-10.974 13.078,-11.091 13.02,-11.222C12.962,-11.353 12.933,-11.495 12.933,-11.646C12.933,-11.798 12.962,-11.942 13.02,-12.079C13.078,-12.216 13.159,-12.336 13.261,-12.438C13.363,-12.54 13.479,-12.62 13.611,-12.679C13.742,-12.737 13.883,-12.766 14.035,-12.766C14.187,-12.766 14.33,-12.737 14.464,-12.679C14.598,-12.62 14.716,-12.54 14.818,-12.438C14.92,-12.336 15.002,-12.216 15.063,-12.079C15.124,-11.942 15.155,-11.798 15.155,-11.646Z" style="fill:rgb(77,59,107);fill-rule:nonzero;"/>
        <path d="M23.599,-7.289C23.552,-7.225 23.505,-7.175 23.459,-7.14C23.412,-7.105 23.345,-7.088 23.258,-7.088C23.17,-7.088 23.075,-7.124 22.973,-7.197C22.871,-7.27 22.741,-7.35 22.584,-7.438C22.426,-7.525 22.235,-7.605 22.011,-7.678C21.786,-7.751 21.51,-7.788 21.184,-7.788C20.752,-7.788 20.37,-7.71 20.038,-7.556C19.705,-7.401 19.426,-7.178 19.202,-6.886C18.977,-6.595 18.808,-6.242 18.694,-5.828C18.581,-5.413 18.524,-4.95 18.524,-4.436C18.524,-3.9 18.585,-3.423 18.708,-3.006C18.83,-2.589 19.002,-2.239 19.224,-1.956C19.445,-1.673 19.715,-1.457 20.033,-1.308C20.351,-1.159 20.708,-1.085 21.105,-1.085C21.484,-1.085 21.796,-1.13 22.041,-1.221C22.286,-1.311 22.49,-1.412 22.654,-1.523C22.817,-1.633 22.951,-1.734 23.056,-1.824C23.161,-1.915 23.266,-1.96 23.371,-1.96C23.505,-1.96 23.605,-1.91 23.669,-1.811L24.106,-1.243C23.721,-0.77 23.24,-0.424 22.663,-0.206C22.085,0.013 21.475,0.123 20.834,0.123C20.28,0.123 19.765,0.02 19.289,-0.184C18.814,-0.388 18.401,-0.684 18.051,-1.072C17.701,-1.46 17.426,-1.937 17.224,-2.503C17.023,-3.068 16.923,-3.713 16.923,-4.436C16.923,-5.095 17.014,-5.705 17.198,-6.265C17.382,-6.825 17.65,-7.308 18.003,-7.713C18.356,-8.119 18.792,-8.435 19.311,-8.663C19.83,-8.89 20.425,-9.004 21.096,-9.004C21.715,-9.004 22.263,-8.903 22.741,-8.702C23.22,-8.501 23.643,-8.216 24.01,-7.849L23.599,-7.289Z" style="fill:rgb(77,59,107);fill-rule:nonzero;"/>
    </g>
    <path d="M12.591,31.816L12.591,11.077L12.616,11.077C29.928,11.077 43.963,25.111 43.963,42.424C43.963,59.736 29.928,73.771 12.616,73.771L12.591,73.771L12.591,53.032L12.616,53.032C18.474,53.032 23.224,48.283 23.224,42.424C23.224,36.566 18.474,31.816 12.616,31.816L12.591,31.816Z" style="fill:rgb(52,13,117);"/>
    <path d="M12.591,53.032L12.591,44.927L12.616,44.927C13.998,44.927 15.119,43.806 15.119,42.424C15.119,41.042 13.998,39.922 12.616,39.922L12.591,39.922L12.591,31.816L12.616,31.816C18.474,31.816 23.224,36.566 23.224,42.424C23.224,48.283 18.474,53.032 12.616,53.032L12.591,53.032Z" style="fill:rgb(93,132,180);"/>
    <path d="M53.786,20.313L53.786,55.985C53.786,61.701 50.744,65.359 48.437,67.423C46.709,68.968 44.762,69.86 43.836,70.271C43.992,71.091 43.524,71.937 42.724,72.276L38.359,74.074C37.438,74.464 36.365,74.033 35.975,73.111L35.12,71.109C34.729,70.188 35.151,69.125 36.073,68.736L40.402,66.936C41.137,66.626 41.85,66.839 42.351,67.406C44.042,66.67 49.786,63.562 49.786,55.985L49.786,20.475C48.786,19.992 46.78,18.574 46.38,16.673C45.814,13.963 47.682,11.305 50.392,10.737C53.102,10.169 56.002,11.905 56.571,14.615C57.081,17.053 55.786,19.444 53.786,20.313Z" style="fill:rgb(237,20,169);"/>
</svg>
