<svg viewBox="0 0 64 64" style="fill-rule:evenodd;clip-rule:evenodd;stroke-linejoin:round;stroke-miterlimit:2;" xmlns="http://www.w3.org/2000/svg">
  <path d="M 26.734 6.5 C 28.867 6.5 30.501 8.153 30.5 10.186 L 30.5 26.814 C 30.5 28.848 28.817 30.5 26.733 30.5 L 6.296 30.5 C 4.265 30.5 2.578 28.85 2.578 26.814 L 2.578 10.186 C 2.578 8.151 4.264 6.5 6.297 6.5 L 26.734 6.5 Z M 4.501 26.886 C 4.501 27.864 5.32 28.649 6.296 28.649 L 26.733 28.649 C 27.742 28.649 28.577 27.871 28.577 26.886 L 28.577 10.258 C 28.577 9.274 27.766 8.495 26.734 8.495 L 6.297 8.495 C 5.32 8.495 4.501 9.28 4.501 10.258 L 4.501 26.886 Z M 9.352 11.234 C 10.671 11.234 11.74 12.278 11.74 13.566 C 11.74 14.854 10.716 15.897 9.352 15.897 C 7.989 15.897 6.965 14.854 6.965 13.566 C 6.965 12.278 8.078 11.234 9.352 11.234 Z M 26.018 26.37 C 25.879 26.623 25.61 26.777 25.317 26.777 L 7.905 26.777 C 7.605 26.777 7.331 26.613 7.195 26.352 C 7.06 26.092 7.086 25.779 7.262 25.543 L 10.744 20.88 C 10.895 20.677 11.133 20.56 11.386 20.56 C 11.641 20.56 11.88 20.679 12.03 20.88 L 13.645 23.042 L 18.287 16.285 C 18.436 16.028 18.685 15.897 18.948 15.897 C 19.213 15.897 19.464 16.028 19.611 16.243 L 25.979 25.569 C 26.143 25.806 26.157 26.112 26.018 26.37 Z" style="fill: rgb(52, 13, 117);"/>
  <path d="M 57.657 6.5 C 59.79 6.5 61.423 8.153 61.422 10.186 L 61.422 26.814 C 61.422 28.848 59.739 30.5 57.656 30.5 L 37.218 30.5 C 35.188 30.5 33.5 28.849 33.5 26.814 L 33.5 10.186 C 33.5 8.151 35.187 6.5 37.219 6.5 L 57.657 6.5 Z M 35.423 26.886 C 35.423 27.864 36.242 28.649 37.218 28.649 L 57.656 28.649 C 58.664 28.649 59.5 27.871 59.5 26.886 L 59.5 10.258 C 59.5 9.274 58.689 8.495 57.657 8.495 L 37.219 8.495 C 36.242 8.495 35.423 9.28 35.423 10.258 L 35.423 26.886 Z M 56.941 26.62 C 56.802 26.873 56.533 27.027 56.24 27.027 L 38.827 27.027 C 38.528 27.027 38.254 26.863 38.118 26.602 C 37.982 26.342 38.008 26.029 38.185 25.793 L 41.667 21.13 C 41.817 20.927 42.056 20.81 42.309 20.81 C 42.563 20.81 42.803 20.929 42.953 21.13 L 44.567 23.292 L 49.21 16.535 C 49.359 16.278 49.607 16.147 49.871 16.147 C 50.136 16.147 50.387 16.278 50.533 16.493 L 56.901 25.819 C 57.065 26.056 57.08 26.363 56.941 26.62 Z M 40.274 11.484 C 41.594 11.484 42.663 12.528 42.663 13.816 C 42.663 15.104 41.638 16.147 40.274 16.147 C 38.911 16.147 37.887 15.104 37.887 13.816 C 37.887 12.528 39 11.484 40.274 11.484 Z" style="fill:rgb(52, 13, 117);"/>
  <path d="M 26.734 33.5 C 28.867 33.5 30.501 35.153 30.5 37.186 L 30.5 53.814 C 30.5 55.848 28.817 57.5 26.733 57.5 L 6.296 57.5 C 4.265 57.5 2.578 55.85 2.578 53.814 L 2.578 37.186 C 2.578 35.151 4.264 33.5 6.297 33.5 L 26.734 33.5 Z M 4.501 53.886 C 4.501 54.864 5.32 55.649 6.296 55.649 L 26.733 55.649 C 27.742 55.649 28.577 54.871 28.577 53.886 L 28.577 37.258 C 28.577 36.274 27.766 35.495 26.734 35.495 L 6.297 35.495 C 5.32 35.495 4.501 36.28 4.501 37.258 L 4.501 53.886 Z M 9.352 38.234 C 10.671 38.234 11.74 39.278 11.74 40.566 C 11.74 41.854 10.716 42.897 9.352 42.897 C 7.989 42.897 6.965 41.854 6.965 40.566 C 6.965 39.278 8.078 38.234 9.352 38.234 Z M 26.018 53.37 C 25.879 53.623 25.61 53.777 25.317 53.777 L 7.905 53.777 C 7.605 53.777 7.331 53.613 7.195 53.352 C 7.06 53.092 7.086 52.779 7.262 52.543 L 10.744 47.88 C 10.895 47.677 11.133 47.56 11.386 47.56 C 11.641 47.56 11.88 47.679 12.03 47.88 L 13.645 50.042 L 18.287 43.285 C 18.436 43.028 18.685 42.897 18.948 42.897 C 19.213 42.897 19.464 43.028 19.611 43.243 L 25.979 52.569 C 26.143 52.806 26.157 53.112 26.018 53.37 Z" style="fill:rgb(52, 13, 117);"/>
  <path d="M 57.657 33.5 C 59.79 33.5 61.423 35.153 61.422 37.186 L 61.422 53.814 C 61.422 55.848 59.739 57.5 57.656 57.5 L 37.218 57.5 C 35.188 57.5 33.5 55.849 33.5 53.814 L 33.5 37.186 C 33.5 35.151 35.187 33.5 37.219 33.5 L 57.657 33.5 Z M 35.423 53.886 C 35.423 54.864 36.242 55.649 37.218 55.649 L 57.656 55.649 C 58.664 55.649 59.5 54.871 59.5 53.886 L 59.5 37.258 C 59.5 36.274 58.689 35.495 57.657 35.495 L 37.219 35.495 C 36.242 35.495 35.423 36.28 35.423 37.258 L 35.423 53.886 Z M 56.941 53.62 C 56.802 53.873 56.533 54.027 56.24 54.027 L 38.827 54.027 C 38.528 54.027 38.254 53.863 38.118 53.602 C 37.982 53.342 38.008 53.029 38.185 52.793 L 41.667 48.13 C 41.817 47.927 42.056 47.81 42.309 47.81 C 42.563 47.81 42.803 47.929 42.953 48.13 L 44.567 50.292 L 49.21 43.535 C 49.359 43.278 49.607 43.147 49.871 43.147 C 50.136 43.147 50.387 43.278 50.533 43.493 L 56.901 52.819 C 57.065 53.056 57.08 53.362 56.941 53.62 Z M 40.274 38.484 C 41.594 38.484 42.663 39.528 42.663 40.816 C 42.663 42.104 41.638 43.147 40.274 43.147 C 38.911 43.147 37.887 42.104 37.887 40.816 C 37.887 39.528 39 38.484 40.274 38.484 Z" style="fill:rgb(52, 13, 117);"/>
</svg>