<?xml version="1.0" encoding="utf-8"?>
<svg viewBox="0 0 200 200" style="fill-rule:evenodd;clip-rule:evenodd;stroke-linejoin:round;stroke-miterlimit:2;" xmlns="http://www.w3.org/2000/svg">
  <path d="M 43.754 142.186 C 43.754 144.768 45.85 146.874 48.441 146.874 L 165.625 146.874 C 170.807 146.874 175 151.067 175 156.248 C 175 161.435 170.807 165.623 165.625 165.623 L 48.441 165.623 C 35.496 165.623 25 155.136 25 142.186 L 25 43.752 C 25 38.579 29.202 34.377 34.375 34.377 C 39.552 34.377 43.749 38.579 43.749 43.752 L 43.749 142.186 L 43.754 142.186 Z M 125.371 106.624 C 121.709 110.286 115.79 110.286 112.128 106.624 L 95.31 89.838 L 69.122 115.998 C 65.46 119.66 59.542 119.66 55.88 115.998 C 52.213 112.336 52.213 106.418 55.88 102.756 L 88.691 69.944 C 92.353 66.282 98.272 66.282 101.934 69.944 L 118.747 86.73 L 149.627 55.882 C 153.289 52.216 159.208 52.216 162.87 55.882 C 166.532 59.544 166.532 65.463 162.87 69.125 L 125.371 106.624 Z" style="fill:rgb(52, 13, 117);"/>
</svg>