<?xml version="1.0" encoding="utf-8"?>
<svg viewBox="0 0 24 24" fill="rgb(247,247,247)" xmlns="http://www.w3.org/2000/svg">
  <path d="M 8.578 13.432 C 8.101 13.909 7.327 13.909 6.85 13.432 C 6.373 12.955 6.373 12.18 6.85 11.703 C 9.713 8.84 14.357 8.84 17.22 11.703 C 17.697 12.181 17.697 12.955 17.22 13.432 C 16.743 13.909 15.969 13.909 15.492 13.432 C 13.583 11.523 10.487 11.523 8.578 13.432 Z" style=""/>
  <path d="M 5.086 9.975 C 4.609 10.452 3.835 10.452 3.358 9.975 C 2.881 9.498 2.881 8.724 3.358 8.247 C 8.131 3.474 15.869 3.474 20.642 8.247 C 21.119 8.724 21.119 9.498 20.642 9.975 C 20.165 10.452 19.391 10.452 18.914 9.975 C 15.095 6.157 8.905 6.157 5.086 9.975 Z" style=""/>
  <path d="M 9.634 16.889 C 9.634 15.54 10.729 14.444 12.078 14.444 C 13.427 14.444 14.523 15.54 14.523 16.889 C 14.523 18.238 13.427 19.333 12.078 19.333 C 10.729 19.333 9.634 18.238 9.634 16.889 Z" style=""/>
</svg>