<svg viewBox="0 0 64 64" style="fill:rgb(21,21,21)" xmlns="http://www.w3.org/2000/svg">
  <path d="M8,31.999C8,18.743 18.744,7.999 32,7.999C45.256,7.999 56,18.743 56,31.999C56,45.255 45.256,55.999 32,55.999C18.744,55.999 8,45.255 8,31.999ZM43.22,18.969L40.347,21.842C37.921,19.739 34.809,18.508 31.513,18.508C24.067,18.508 17.999,24.556 17.999,32.002C17.999,39.448 24.065,45.511 31.511,45.511C35.457,45.511 40.383,43.377 40.383,41.263C40.383,40.243 39.567,39.334 38.452,39.334C36.904,39.334 35.921,41.646 31.505,41.646C26.191,41.646 21.866,37.324 21.866,32.004C21.866,26.688 26.191,22.362 31.508,22.362C33.769,22.362 35.918,23.179 37.62,24.574L34.899,27.298C34.567,27.63 34.417,28.037 34.417,28.439C34.417,29.275 35.069,30.081 36.052,30.081L44.842,30.081C45.481,30.081 46.001,29.561 46.001,28.923L46.001,20.12C46.001,19.136 45.197,18.488 44.361,18.488C43.961,18.488 43.552,18.637 43.22,18.969Z"/>
</svg>