<svg width="100%" height="100%" viewBox="0 0 64 64" version="1.1"  xmlns="http://www.w3.org/2000/svg" style="color: blue">
<style>
    .restart {
      fill: currentColor;
    }
    </style>
  <path class="restart" d="M 8 31.999 C 8 18.743 18.744 7.999 32 7.999 C 45.256 7.999 56 18.743 56 31.999 C 56 45.255 45.256 55.999 32 55.999 C 18.744 55.999 8 45.255 8 31.999 Z M 43.22 18.969 L 40.347 21.842 C 37.921 19.739 34.809 18.508 31.513 18.508 C 24.067 18.508 17.999 24.556 17.999 32.002 C 17.999 39.448 24.065 45.511 31.511 45.511 C 35.457 45.511 40.383 43.377 40.383 41.263 C 40.383 40.243 39.567 39.334 38.452 39.334 C 36.904 39.334 35.921 41.646 31.505 41.646 C 26.191 41.646 21.866 37.324 21.866 32.004 C 21.866 26.688 26.191 22.362 31.508 22.362 C 33.769 22.362 35.918 23.179 37.62 24.574 L 34.899 27.298 C 34.567 27.63 34.417 28.037 34.417 28.439 C 34.417 29.275 35.069 30.081 36.052 30.081 L 44.842 30.081 C 45.481 30.081 46.001 29.561 46.001 28.923 L 46.001 20.12 C 46.001 19.136 45.197 18.488 44.361 18.488 C 43.961 18.488 43.552 18.637 43.22 18.969 Z"/>
</svg>