<svg viewBox="0 0 100 100" style="fill=:rgb(247,247,247)" xmlns="http://www.w3.org/2000/svg">
  <path d="M 33.479 20.588 C 33.178 20.594 32.85 20.685 32.496 20.879 C 20.621 26.867 12.508 38.743 12.508 52.371 C 12.508 72 29.341 87.994 50 87.994 C 70.659 87.994 87.492 72 87.492 52.371 C 87.492 39.103 79.802 27.497 68.438 21.367 C 66.45 20.062 64.883 21.19 64.57 22.947 C 64.178 25.146 64.058 27.275 66.287 28.969 C 74.263 33.978 79.508 42.571 79.508 52.371 C 79.508 67.901 66.344 80.408 50 80.408 C 33.656 80.408 20.492 67.901 20.492 52.371 C 20.492 42.571 25.737 33.978 33.713 28.969 C 35.189 28.005 36.005 25.571 35.77 23.688 C 35.573 22.113 34.781 20.559 33.479 20.588 Z M 50 12.006 C 47.248 12.006 45.033 14.275 45.033 17.094 L 45.033 37.01 C 45.033 39.829 47.248 42.1 50 42.1 C 52.752 42.1 54.967 39.829 54.967 37.01 L 54.967 17.094 C 54.967 14.275 52.752 12.006 50 12.006 Z" style="fill-rule: nonzero; fill: rgb(21, 21, 21); stroke-width: 0px;"/>
</svg>