<svg viewBox="0 0 64 64" style="fill-rule:evenodd;clip-rule:evenodd;stroke-linejoin:round;stroke-miterlimit:2;" xmlns="http://www.w3.org/2000/svg">
    <path id="leftWave1" fill="#340D75" d="M 14.077 33.01 C 14.307 32.452 14.855 32.085 15.459 32.085 C 16.28 32.085 16.955 32.76 16.955 33.581 C 16.955 33.776 16.916 33.97 16.842 34.151 C 16.173 35.884 15.829 37.725 15.826 39.582 C 15.765 41.385 16.05 43.183 16.665 44.878 C 16.758 45.077 16.806 45.294 16.806 45.513 C 16.806 46.332 16.132 47.007 15.311 47.007 C 14.671 47.007 14.098 46.595 13.894 45.988 C 13.134 43.93 12.78 41.744 12.853 39.551 C 12.858 37.314 13.273 35.098 14.077 33.01 Z"/>
    <path id="leftWave2" fill="#340D75" d="M 8.124 30.344 C 8.374 29.829 8.898 29.5 9.471 29.5 C 10.291 29.5 10.966 30.175 10.966 30.995 C 10.966 31.221 10.915 31.443 10.817 31.646 C 9.627 34.181 9.003 36.944 8.989 39.744 C 8.94 42.375 9.524 44.978 10.692 47.336 C 10.804 47.552 10.863 47.792 10.863 48.034 C 10.863 48.863 10.18 49.546 9.351 49.546 C 8.788 49.546 8.27 49.232 8.01 48.732 C 6.623 45.938 5.934 42.848 6.005 39.728 C 6.022 36.487 6.745 33.287 8.124 30.355 L 8.124 30.344 Z"/>
    <path id="speaker" d="M 20.152 10.764 L 43.844 10.764 C 44.665 10.764 45.341 11.438 45.343 12.259 L 45.343 51.746 C 45.337 52.563 44.665 53.232 43.848 53.237 L 20.152 53.237 C 19.334 53.235 18.661 52.563 18.656 51.746 L 18.656 12.259 C 18.658 11.439 19.332 10.766 20.152 10.764 Z M 31.997 14.971 C 30.599 14.97 29.255 15.527 28.268 16.517 C 27.278 17.507 26.721 18.852 26.721 20.251 C 26.721 23.149 29.105 25.533 32.002 25.533 C 34.899 25.533 37.283 23.149 37.283 20.251 C 37.283 17.354 34.899 14.971 32.002 14.971 L 31.997 14.971 Z M 34.782 17.448 C 35.52 18.186 35.936 19.188 35.938 20.232 L 35.938 20.252 C 35.938 22.434 34.143 24.229 31.962 24.229 C 29.781 24.229 27.985 22.434 27.985 20.252 C 27.985 18.071 29.781 16.276 31.962 16.276 C 33.02 16.276 34.036 16.698 34.782 17.448 Z M 31.997 18.589 C 31.088 18.589 30.34 19.337 30.34 20.248 C 30.34 21.157 31.088 21.906 31.997 21.906 C 32.908 21.906 33.656 21.157 33.656 20.248 C 33.656 19.337 32.908 18.589 31.997 18.589 Z M 31.997 30.106 C 29.504 30.103 27.11 31.095 25.349 32.861 C 23.586 34.625 22.593 37.02 22.593 39.514 C 22.593 44.675 26.841 48.923 32.001 48.923 C 37.163 48.923 41.41 44.675 41.41 39.514 C 41.41 34.353 37.163 30.106 32.001 30.106 L 31.997 30.106 Z M 37.39 34.106 C 38.826 35.537 39.631 37.484 39.629 39.51 C 39.629 43.703 36.179 47.153 31.986 47.153 C 27.793 47.153 24.343 43.703 24.343 39.51 C 24.343 35.317 27.793 31.867 31.986 31.867 C 34.012 31.867 35.957 32.673 37.39 34.106 Z M 31.997 36.69 C 30.451 36.69 29.178 37.963 29.178 39.51 C 29.178 41.057 30.451 42.33 31.997 42.33 C 33.545 42.33 34.817 41.057 34.817 39.51 C 34.817 37.963 33.545 36.69 31.997 36.69 Z" style="stroke-width: 0.764; fill: rgb(21, 21, 21);"/>
    <path id="rightWave1" fill="#340D75" d="M 47.159 34.156 C 47.084 33.974 47.045 33.78 47.045 33.583 C 47.045 32.762 47.72 32.087 48.541 32.087 C 49.145 32.087 49.693 32.452 49.924 33.01 C 50.731 35.097 51.149 37.314 51.158 39.551 C 51.231 41.744 50.877 43.93 50.117 45.988 C 49.913 46.595 49.34 47.007 48.7 47.007 C 47.879 47.007 47.205 46.332 47.205 45.513 C 47.205 45.294 47.253 45.077 47.346 44.878 C 47.953 43.183 48.231 41.387 48.164 39.588 C 48.153 37.728 47.8 35.887 47.122 34.156 L 47.159 34.156 Z"/>
    <path id="rightWave2" fill="#340D75" d="M 53.184 31.646 C 53.086 31.443 53.035 31.221 53.035 30.995 C 53.035 30.175 53.71 29.5 54.53 29.5 C 55.102 29.5 55.627 29.829 55.876 30.344 C 57.256 33.278 57.979 36.477 57.996 39.718 C 58.061 42.842 57.368 45.935 55.975 48.732 C 55.726 49.247 55.202 49.575 54.63 49.575 C 53.81 49.575 53.135 48.9 53.135 48.081 C 53.135 47.83 53.198 47.583 53.319 47.363 C 54.481 45.003 55.055 42.399 54.996 39.77 C 54.982 36.97 54.358 34.207 53.168 31.672 L 53.184 31.646 Z"/>
</svg>