<svg width="100%" height="100%" fill="rgb(21, 21, 21)" viewBox="0 0 64 64" xmlns="http://www.w3.org/2000/svg">
  <path d="M 49.143 10.293 C 52.925 10.293 56 13.365 56 17.15 L 56 51.436 C 56 55.225 52.928 58.293 49.143 58.293 L 14.857 58.293 C 11.072 58.293 8 55.225 8 51.436 L 8 17.15 C 8 13.365 11.072 10.293 14.857 10.293 L 49.143 10.293 Z M 26.497 54.861 L 26.497 46.406 L 24.598 46.406 L 24.598 54.861 L 26.497 54.861 Z M 31.544 52.454 L 29.73 46.406 L 27.762 46.406 L 30.714 54.861 L 32.363 54.861 L 35.291 46.406 L 33.334 46.406 L 31.544 52.454 Z M 22.41 54.861 L 22.41 42.861 L 20.511 42.861 L 20.511 54.861 L 22.41 54.861 Z M 24.481 44.212 C 24.481 44.497 24.574 44.737 24.759 44.925 C 24.944 45.117 25.208 45.213 25.551 45.213 C 25.894 45.213 26.161 45.117 26.346 44.925 C 26.535 44.737 26.627 44.497 26.627 44.212 C 26.627 43.921 26.535 43.677 26.346 43.485 C 26.161 43.293 25.894 43.197 25.551 43.197 C 25.208 43.197 24.944 43.293 24.759 43.485 C 24.574 43.677 24.481 43.921 24.481 44.212 Z M 28.174 14.257 C 27.426 13.561 26.333 13.379 25.4 13.787 C 24.467 14.195 23.857 15.124 23.857 16.046 L 23.857 36.618 C 23.857 37.732 24.467 38.665 25.4 39.073 C 26.333 39.481 27.426 39.299 28.174 38.603 L 39.317 28.317 C 39.841 27.834 40.143 27.148 40.143 26.428 C 40.143 25.711 39.841 25.026 39.313 24.542 L 28.174 14.257 Z M 40.098 55.015 C 40.801 55.015 41.435 54.878 42.001 54.597 C 42.563 54.319 43.016 53.929 43.355 53.421 L 42.334 52.447 C 41.785 53.15 41.075 53.5 40.208 53.5 C 39.587 53.5 39.073 53.298 38.665 52.89 C 38.254 52.485 38.021 51.933 37.966 51.234 L 43.489 51.234 L 43.489 50.469 C 43.489 49.125 43.174 48.086 42.546 47.353 C 41.919 46.619 41.031 46.252 39.879 46.252 C 39.155 46.252 38.497 46.437 37.911 46.804 C 37.321 47.174 36.865 47.692 36.539 48.357 C 36.214 49.019 36.049 49.773 36.049 50.617 L 36.049 50.853 C 36.049 52.111 36.423 53.123 37.17 53.881 C 37.918 54.638 38.895 55.015 40.098 55.015 Z M 39.872 47.774 C 40.397 47.774 40.808 47.935 41.106 48.261 C 41.401 48.587 41.573 49.067 41.614 49.705 L 41.614 49.845 L 37.997 49.845 C 38.086 49.194 38.288 48.686 38.61 48.319 C 38.929 47.956 39.351 47.774 39.872 47.774 Z"/>
</svg>