<svg width="100%" height="100%" viewBox="0 0 64 64" fill="rgb(247,247,247)" xmlns="http://www.w3.org/2000/svg">
  <path d="M 37.656 37.656 C 39.22 36.095 40.001 34.209 40.001 32 C 40.001 29.792 39.22 27.905 37.656 26.344 C 36.095 24.78 34.208 23.999 32 23.999 C 29.791 23.999 27.908 24.78 26.344 26.344 C 24.783 27.905 23.999 29.792 23.999 32 C 23.999 34.209 24.783 36.095 26.344 37.656 C 27.908 39.221 29.791 40.001 32 40.001 C 34.208 40.001 36.095 39.221 37.656 37.656 Z M 55.999 28.595 L 55.999 35.532 C 55.999 35.78 55.915 36.022 55.751 36.249 C 55.583 36.48 55.376 36.613 55.124 36.655 L 49.346 37.53 C 48.947 38.657 48.541 39.606 48.124 40.376 C 48.856 41.415 49.969 42.854 51.47 44.688 C 51.677 44.936 51.782 45.199 51.782 45.468 C 51.782 45.741 51.687 45.979 51.502 46.189 C 50.938 46.959 49.906 48.083 48.408 49.563 C 46.906 51.04 45.926 51.782 45.468 51.782 C 45.219 51.782 44.95 51.688 44.656 51.499 L 40.344 48.125 C 39.427 48.604 38.478 49 37.502 49.311 C 37.166 52.146 36.865 54.085 36.595 55.125 C 36.448 55.709 36.074 56 35.468 56 L 28.531 56 C 28.24 56 27.985 55.912 27.765 55.734 C 27.548 55.559 27.429 55.335 27.408 55.062 L 26.533 49.311 C 25.511 48.979 24.573 48.594 23.719 48.156 L 19.312 51.499 C 19.106 51.688 18.843 51.782 18.532 51.782 C 18.241 51.782 17.979 51.667 17.751 51.439 C 15.126 49.063 13.407 47.313 12.596 46.189 C 12.449 45.979 12.375 45.741 12.375 45.468 C 12.375 45.22 12.459 44.978 12.624 44.751 C 12.939 44.313 13.471 43.62 14.22 42.671 C 14.969 41.723 15.532 40.988 15.907 40.47 C 15.343 39.427 14.916 38.395 14.625 37.376 L 8.907 36.533 C 8.637 36.491 8.417 36.361 8.249 36.141 C 8.084 35.924 8 35.679 8 35.406 L 8 28.469 C 8 28.22 8.084 27.979 8.249 27.751 C 8.417 27.52 8.616 27.387 8.844 27.345 L 14.657 26.47 C 14.948 25.511 15.354 24.552 15.875 23.593 C 15.042 22.407 13.926 20.968 12.532 19.281 C 12.323 19.033 12.218 18.781 12.218 18.532 C 12.218 18.322 12.312 18.084 12.501 17.811 C 13.04 17.062 14.069 15.942 15.578 14.455 C 17.09 12.964 18.073 12.218 18.532 12.218 C 18.801 12.218 19.074 12.323 19.344 12.533 L 23.656 15.875 C 24.573 15.396 25.521 15 26.501 14.689 C 26.834 11.854 27.135 9.915 27.408 8.875 C 27.551 8.291 27.926 8 28.531 8 L 35.468 8 C 35.762 8 36.014 8.088 36.235 8.267 C 36.451 8.442 36.574 8.666 36.595 8.939 L 37.47 14.689 C 38.489 15.022 39.427 15.407 40.281 15.844 L 44.719 12.502 C 44.908 12.313 45.156 12.218 45.468 12.218 C 45.741 12.218 46 12.323 46.252 12.533 C 48.936 15.011 50.658 16.782 51.407 17.843 C 51.551 18.011 51.624 18.238 51.624 18.532 C 51.624 18.781 51.54 19.022 51.376 19.25 C 51.064 19.687 50.532 20.38 49.783 21.329 C 49.031 22.277 48.471 23.012 48.093 23.53 C 48.635 24.573 49.062 25.595 49.374 26.593 L 55.093 27.468 C 55.366 27.51 55.583 27.639 55.751 27.86 C 55.915 28.077 55.999 28.322 55.999 28.595 Z" style="fill-rule:nonzero;"/>
</svg>