<?xml version="1.0" encoding="utf-8"?>
<svg viewBox="0 0 150 150" style="fill-rule:evenodd;clip-rule:evenodd;stroke-linejoin:round;stroke-miterlimit:2;" xmlns="http://www.w3.org/2000/svg">
  <g transform="matrix(1, 0, 0, 1, -0.000008, -0.000006)">
    <path d="M75,14.059c33.634,-0 60.941,27.307 60.941,60.941c0,33.634 -27.307,60.941 -60.941,60.941c-33.634,0 -60.941,-27.307 -60.941,-60.941c-0,-33.634 27.307,-60.941 60.941,-60.941Zm-21.094,53.91c-3.896,-0 -7.031,3.135 -7.031,7.031c0,3.896 3.135,7.031 7.031,7.031l42.188,0c3.896,0 7.031,-3.135 7.031,-7.031c0,-3.896 -3.135,-7.031 -7.031,-7.031l-42.188,-0Z" style="fill:#f6f6f6;"/>
  </g>
</svg>