<?xml version="1.0" encoding="utf-8"?>
<svg viewBox="0 0 150 150" style="fill-rule:evenodd;clip-rule:evenodd;stroke-linejoin:round;stroke-miterlimit:2;" xmlns="http://www.w3.org/2000/svg">
  <path d="M 75 14.059 C 108.634 14.059 135.941 41.366 135.941 75 C 135.941 108.634 108.634 135.941 75 135.941 C 41.366 135.941 14.059 108.634 14.059 75 C 14.059 41.366 41.366 14.059 75 14.059 Z M 67.969 100.781 C 67.969 104.678 71.104 107.812 75 107.812 C 78.896 107.812 82.031 104.678 82.031 100.781 L 82.031 82.031 L 100.781 82.031 C 104.678 82.031 107.812 78.896 107.812 75 C 107.812 71.104 104.678 67.969 100.781 67.969 L 82.031 67.969 L 82.031 49.219 C 82.031 45.322 78.896 42.188 75 42.188 C 71.104 42.188 67.969 45.322 67.969 49.219 L 67.969 67.969 L 49.219 67.969 C 45.322 67.969 42.188 71.104 42.188 75 C 42.188 78.896 45.322 82.031 49.219 82.031 L 67.969 82.031 L 67.969 100.781 Z" style="fill: rgb(133, 133, 133);" transform="matrix(0, 1, -1, 0, 150, 0)"/>
</svg>